<svg xmlns="http://www.w3.org/2000/svg" width="1440" height="720" viewBox="0 0 1440 720"><path fill="#c8d7cf" d="M0 0h1440v720H0z"/><path d="M0 125h120l22-18h116M380 85h150l38-20h140M950 140h160l28-18h140" fill="none" stroke="#e9eee4" stroke-width="12"/><path d="M0 465L100 415 220 445 355 402 530 450 800 420 940 460 1200 400 1440 440V650H0Z" fill="#a3baac"/><g><rect x="0" y="315" width="90" height="265" fill="#829b90"/><path d="M8 315v-12h74v12" fill="#a7b9ae"/><rect x="12" y="329" width="7" height="11" fill="#e9eee2" opacity="0.65"/><rect x="34" y="329" width="7" height="11" fill="#e9eee2" opacity="0.3"/><rect x="56" y="329" width="7" height="11" fill="#e9eee2" opacity="0.3"/><rect x="12" y="357" width="7" height="11" fill="#e9eee2" opacity="0.3"/><rect x="34" y="357" width="7" height="11" fill="#e9eee2" opacity="0.3"/><rect x="56" y="357" width="7" height="11" fill="#e9eee2" opacity="0.65"/><rect x="12" y="385" width="7" height="11" fill="#e9eee2" opacity="0.3"/><rect x="34" y="385" width="7" height="11" fill="#e9eee2" opacity="0.65"/><rect x="56" y="385" width="7" height="11" fill="#e9eee2" opacity="0.3"/><rect x="12" y="413" width="7" height="11" fill="#e9eee2" opacity="0.65"/><rect x="34" y="413" width="7" height="11" fill="#e9eee2" opacity="0.3"/><rect x="56" y="413" width="7" height="11" fill="#e9eee2" opacity="0.3"/><rect x="12" y="441" width="7" height="11" fill="#e9eee2" opacity="0.3"/><rect x="34" y="441" width="7" height="11" fill="#e9eee2" opacity="0.3"/><rect x="56" y="441" width="7" height="11" fill="#e9eee2" opacity="0.65"/><rect x="12" y="469" width="7" height="11" fill="#e9eee2" opacity="0.3"/><rect x="34" y="469" width="7" height="11" fill="#e9eee2" opacity="0.65"/><rect x="56" y="469" width="7" height="11" fill="#e9eee2" opacity="0.3"/><rect x="12" y="497" width="7" height="11" fill="#e9eee2" opacity="0.65"/><rect x="34" y="497" width="7" height="11" fill="#e9eee2" opacity="0.3"/><rect x="56" y="497" width="7" height="11" fill="#e9eee2" opacity="0.3"/><rect x="12" y="525" width="7" height="11" fill="#e9eee2" opacity="0.3"/><rect x="34" y="525" width="7" height="11" fill="#e9eee2" opacity="0.3"/><rect x="56" y="525" width="7" height="11" fill="#e9eee2" opacity="0.65"/><rect x="12" y="553" width="7" height="11" fill="#e9eee2" opacity="0.3"/><rect x="34" y="553" width="7" height="11" fill="#e9eee2" opacity="0.65"/><rect x="56" y="553" width="7" height="11" fill="#e9eee2" opacity="0.3"/></g><g><rect x="104" y="375" width="86" height="205" fill="#69857a"/><path d="M112 375v-12h70v12" fill="#a7b9ae"/><rect x="116" y="389" width="7" height="11" fill="#e9eee2" opacity="0.65"/><rect x="138" y="389" width="7" height="11" fill="#e9eee2" opacity="0.3"/><rect x="116" y="417" width="7" height="11" fill="#e9eee2" opacity="0.3"/><rect x="138" y="417" width="7" height="11" fill="#e9eee2" opacity="0.3"/><rect x="116" y="445" width="7" height="11" fill="#e9eee2" opacity="0.3"/><rect x="138" y="445" width="7" height="11" fill="#e9eee2" opacity="0.65"/><rect x="116" y="473" width="7" height="11" fill="#e9eee2" opacity="0.65"/><rect x="138" y="473" width="7" height="11" fill="#e9eee2" opacity="0.3"/><rect x="116" y="501" width="7" height="11" fill="#e9eee2" opacity="0.3"/><rect x="138" y="501" width="7" height="11" fill="#e9eee2" opacity="0.3"/><rect x="116" y="529" width="7" height="11" fill="#e9eee2" opacity="0.3"/><rect x="138" y="529" width="7" height="11" fill="#e9eee2" opacity="0.65"/><rect x="116" y="557" width="7" height="11" fill="#e9eee2" opacity="0.65"/><rect x="138" y="557" width="7" height="11" fill="#e9eee2" opacity="0.3"/></g><g><rect x="208" y="265" width="100" height="315" fill="#597c71"/><path d="M216 265v-12h84v12" fill="#a7b9ae"/><rect x="220" y="279" width="7" height="11" fill="#e9eee2" opacity="0.65"/><rect x="242" y="279" width="7" height="11" fill="#e9eee2" opacity="0.3"/><rect x="264" y="279" width="7" height="11" fill="#e9eee2" opacity="0.3"/><rect x="220" y="307" width="7" height="11" fill="#e9eee2" opacity="0.3"/><rect x="242" y="307" width="7" height="11" fill="#e9eee2" opacity="0.3"/><rect x="264" y="307" width="7" height="11" fill="#e9eee2" opacity="0.65"/><rect x="220" y="335" width="7" height="11" fill="#e9eee2" opacity="0.3"/><rect x="242" y="335" width="7" height="11" fill="#e9eee2" opacity="0.65"/><rect x="264" y="335" width="7" height="11" fill="#e9eee2" opacity="0.3"/><rect x="220" y="363" width="7" height="11" fill="#e9eee2" opacity="0.65"/><rect x="242" y="363" width="7" height="11" fill="#e9eee2" opacity="0.3"/><rect x="264" y="363" width="7" height="11" fill="#e9eee2" opacity="0.3"/><rect x="220" y="391" width="7" height="11" fill="#e9eee2" opacity="0.3"/><rect x="242" y="391" width="7" height="11" fill="#e9eee2" opacity="0.3"/><rect x="264" y="391" width="7" height="11" fill="#e9eee2" opacity="0.65"/><rect x="220" y="419" width="7" height="11" fill="#e9eee2" opacity="0.3"/><rect x="242" y="419" width="7" height="11" fill="#e9eee2" opacity="0.65"/><rect x="264" y="419" width="7" height="11" fill="#e9eee2" opacity="0.3"/><rect x="220" y="447" width="7" height="11" fill="#e9eee2" opacity="0.65"/><rect x="242" y="447" width="7" height="11" fill="#e9eee2" opacity="0.3"/><rect x="264" y="447" width="7" height="11" fill="#e9eee2" opacity="0.3"/><rect x="220" y="475" width="7" height="11" fill="#e9eee2" opacity="0.3"/><rect x="242" y="475" width="7" height="11" fill="#e9eee2" opacity="0.3"/><rect x="264" y="475" width="7" height="11" fill="#e9eee2" opacity="0.65"/><rect x="220" y="503" width="7" height="11" fill="#e9eee2" opacity="0.3"/><rect x="242" y="503" width="7" height="11" fill="#e9eee2" opacity="0.65"/><rect x="264" y="503" width="7" height="11" fill="#e9eee2" opacity="0.3"/><rect x="220" y="531" width="7" height="11" fill="#e9eee2" opacity="0.65"/><rect x="242" y="531" width="7" height="11" fill="#e9eee2" opacity="0.3"/><rect x="264" y="531" width="7" height="11" fill="#e9eee2" opacity="0.3"/><rect x="220" y="559" width="7" height="11" fill="#e9eee2" opacity="0.3"/><rect x="242" y="559" width="7" height="11" fill="#e9eee2" opacity="0.3"/><rect x="264" y="559" width="7" height="11" fill="#e9eee2" opacity="0.65"/></g><g><rect x="328" y="350" width="66" height="230" fill="#829b90"/><path d="M336 350v-12h50v12" fill="#a7b9ae"/><rect x="340" y="364" width="7" height="11" fill="#e9eee2" opacity="0.65"/><rect x="362" y="364" width="7" height="11" fill="#e9eee2" opacity="0.3"/><rect x="340" y="392" width="7" height="11" fill="#e9eee2" opacity="0.3"/><rect x="362" y="392" width="7" height="11" fill="#e9eee2" opacity="0.3"/><rect x="340" y="420" width="7" height="11" fill="#e9eee2" opacity="0.3"/><rect x="362" y="420" width="7" height="11" fill="#e9eee2" opacity="0.65"/><rect x="340" y="448" width="7" height="11" fill="#e9eee2" opacity="0.65"/><rect x="362" y="448" width="7" height="11" fill="#e9eee2" opacity="0.3"/><rect x="340" y="476" width="7" height="11" fill="#e9eee2" opacity="0.3"/><rect x="362" y="476" width="7" height="11" fill="#e9eee2" opacity="0.3"/><rect x="340" y="504" width="7" height="11" fill="#e9eee2" opacity="0.3"/><rect x="362" y="504" width="7" height="11" fill="#e9eee2" opacity="0.65"/><rect x="340" y="532" width="7" height="11" fill="#e9eee2" opacity="0.65"/><rect x="362" y="532" width="7" height="11" fill="#e9eee2" opacity="0.3"/><rect x="340" y="560" width="7" height="11" fill="#e9eee2" opacity="0.3"/><rect x="362" y="560" width="7" height="11" fill="#e9eee2" opacity="0.3"/></g><g><rect x="416" y="220" width="86" height="360" fill="#69857a"/><path d="M424 220v-12h70v12" fill="#a7b9ae"/><rect x="428" y="234" width="7" height="11" fill="#e9eee2" opacity="0.65"/><rect x="450" y="234" width="7" height="11" fill="#e9eee2" opacity="0.3"/><rect x="428" y="262" width="7" height="11" fill="#e9eee2" opacity="0.3"/><rect x="450" y="262" width="7" height="11" fill="#e9eee2" opacity="0.3"/><rect x="428" y="290" width="7" height="11" fill="#e9eee2" opacity="0.3"/><rect x="450" y="290" width="7" height="11" fill="#e9eee2" opacity="0.65"/><rect x="428" y="318" width="7" height="11" fill="#e9eee2" opacity="0.65"/><rect x="450" y="318" width="7" height="11" fill="#e9eee2" opacity="0.3"/><rect x="428" y="346" width="7" height="11" fill="#e9eee2" opacity="0.3"/><rect x="450" y="346" width="7" height="11" fill="#e9eee2" opacity="0.3"/><rect x="428" y="374" width="7" height="11" fill="#e9eee2" opacity="0.3"/><rect x="450" y="374" width="7" height="11" fill="#e9eee2" opacity="0.65"/><rect x="428" y="402" width="7" height="11" fill="#e9eee2" opacity="0.65"/><rect x="450" y="402" width="7" height="11" fill="#e9eee2" opacity="0.3"/><rect x="428" y="430" width="7" height="11" fill="#e9eee2" opacity="0.3"/><rect x="450" y="430" width="7" height="11" fill="#e9eee2" opacity="0.3"/><rect x="428" y="458" width="7" height="11" fill="#e9eee2" opacity="0.3"/><rect x="450" y="458" width="7" height="11" fill="#e9eee2" opacity="0.65"/><rect x="428" y="486" width="7" height="11" fill="#e9eee2" opacity="0.65"/><rect x="450" y="486" width="7" height="11" fill="#e9eee2" opacity="0.3"/><rect x="428" y="514" width="7" height="11" fill="#e9eee2" opacity="0.3"/><rect x="450" y="514" width="7" height="11" fill="#e9eee2" opacity="0.3"/><rect x="428" y="542" width="7" height="11" fill="#e9eee2" opacity="0.3"/><rect x="450" y="542" width="7" height="11" fill="#e9eee2" opacity="0.65"/></g><g><rect x="520" y="325" width="82" height="255" fill="#597c71"/><path d="M528 325v-12h66v12" fill="#a7b9ae"/><rect x="532" y="339" width="7" height="11" fill="#e9eee2" opacity="0.65"/><rect x="554" y="339" width="7" height="11" fill="#e9eee2" opacity="0.3"/><rect x="532" y="367" width="7" height="11" fill="#e9eee2" opacity="0.3"/><rect x="554" y="367" width="7" height="11" fill="#e9eee2" opacity="0.3"/><rect x="532" y="395" width="7" height="11" fill="#e9eee2" opacity="0.3"/><rect x="554" y="395" width="7" height="11" fill="#e9eee2" opacity="0.65"/><rect x="532" y="423" width="7" height="11" fill="#e9eee2" opacity="0.65"/><rect x="554" y="423" width="7" height="11" fill="#e9eee2" opacity="0.3"/><rect x="532" y="451" width="7" height="11" fill="#e9eee2" opacity="0.3"/><rect x="554" y="451" width="7" height="11" fill="#e9eee2" opacity="0.3"/><rect x="532" y="479" width="7" height="11" fill="#e9eee2" opacity="0.3"/><rect x="554" y="479" width="7" height="11" fill="#e9eee2" opacity="0.65"/><rect x="532" y="507" width="7" height="11" fill="#e9eee2" opacity="0.65"/><rect x="554" y="507" width="7" height="11" fill="#e9eee2" opacity="0.3"/><rect x="532" y="535" width="7" height="11" fill="#e9eee2" opacity="0.3"/><rect x="554" y="535" width="7" height="11" fill="#e9eee2" opacity="0.3"/><rect x="532" y="563" width="7" height="11" fill="#e9eee2" opacity="0.3"/><rect x="554" y="563" width="7" height="11" fill="#e9eee2" opacity="0.65"/></g><g><rect x="620" y="280" width="105" height="300" fill="#829b90"/><path d="M628 280v-12h89v12" fill="#a7b9ae"/><rect x="632" y="294" width="7" height="11" fill="#e9eee2" opacity="0.65"/><rect x="654" y="294" width="7" height="11" fill="#e9eee2" opacity="0.3"/><rect x="676" y="294" width="7" height="11" fill="#e9eee2" opacity="0.3"/><rect x="632" y="322" width="7" height="11" fill="#e9eee2" opacity="0.3"/><rect x="654" y="322" width="7" height="11" fill="#e9eee2" opacity="0.3"/><rect x="676" y="322" width="7" height="11" fill="#e9eee2" opacity="0.65"/><rect x="632" y="350" width="7" height="11" fill="#e9eee2" opacity="0.3"/><rect x="654" y="350" width="7" height="11" fill="#e9eee2" opacity="0.65"/><rect x="676" y="350" width="7" height="11" fill="#e9eee2" opacity="0.3"/><rect x="632" y="378" width="7" height="11" fill="#e9eee2" opacity="0.65"/><rect x="654" y="378" width="7" height="11" fill="#e9eee2" opacity="0.3"/><rect x="676" y="378" width="7" height="11" fill="#e9eee2" opacity="0.3"/><rect x="632" y="406" width="7" height="11" fill="#e9eee2" opacity="0.3"/><rect x="654" y="406" width="7" height="11" fill="#e9eee2" opacity="0.3"/><rect x="676" y="406" width="7" height="11" fill="#e9eee2" opacity="0.65"/><rect x="632" y="434" width="7" height="11" fill="#e9eee2" opacity="0.3"/><rect x="654" y="434" width="7" height="11" fill="#e9eee2" opacity="0.65"/><rect x="676" y="434" width="7" height="11" fill="#e9eee2" opacity="0.3"/><rect x="632" y="462" width="7" height="11" fill="#e9eee2" opacity="0.65"/><rect x="654" y="462" width="7" height="11" fill="#e9eee2" opacity="0.3"/><rect x="676" y="462" width="7" height="11" fill="#e9eee2" opacity="0.3"/><rect x="632" y="490" width="7" height="11" fill="#e9eee2" opacity="0.3"/><rect x="654" y="490" width="7" height="11" fill="#e9eee2" opacity="0.3"/><rect x="676" y="490" width="7" height="11" fill="#e9eee2" opacity="0.65"/><rect x="632" y="518" width="7" height="11" fill="#e9eee2" opacity="0.3"/><rect x="654" y="518" width="7" height="11" fill="#e9eee2" opacity="0.65"/><rect x="676" y="518" width="7" height="11" fill="#e9eee2" opacity="0.3"/><rect x="632" y="546" width="7" height="11" fill="#e9eee2" opacity="0.65"/><rect x="654" y="546" width="7" height="11" fill="#e9eee2" opacity="0.3"/><rect x="676" y="546" width="7" height="11" fill="#e9eee2" opacity="0.3"/></g><g><rect x="744" y="365" width="110" height="215" fill="#69857a"/><path d="M752 365v-12h94v12" fill="#a7b9ae"/><rect x="756" y="379" width="7" height="11" fill="#e9eee2" opacity="0.65"/><rect x="778" y="379" width="7" height="11" fill="#e9eee2" opacity="0.3"/><rect x="800" y="379" width="7" height="11" fill="#e9eee2" opacity="0.3"/><rect x="822" y="379" width="7" height="11" fill="#e9eee2" opacity="0.65"/><rect x="756" y="407" width="7" height="11" fill="#e9eee2" opacity="0.3"/><rect x="778" y="407" width="7" height="11" fill="#e9eee2" opacity="0.3"/><rect x="800" y="407" width="7" height="11" fill="#e9eee2" opacity="0.65"/><rect x="822" y="407" width="7" height="11" fill="#e9eee2" opacity="0.3"/><rect x="756" y="435" width="7" height="11" fill="#e9eee2" opacity="0.3"/><rect x="778" y="435" width="7" height="11" fill="#e9eee2" opacity="0.65"/><rect x="800" y="435" width="7" height="11" fill="#e9eee2" opacity="0.3"/><rect x="822" y="435" width="7" height="11" fill="#e9eee2" opacity="0.3"/><rect x="756" y="463" width="7" height="11" fill="#e9eee2" opacity="0.65"/><rect x="778" y="463" width="7" height="11" fill="#e9eee2" opacity="0.3"/><rect x="800" y="463" width="7" height="11" fill="#e9eee2" opacity="0.3"/><rect x="822" y="463" width="7" height="11" fill="#e9eee2" opacity="0.65"/><rect x="756" y="491" width="7" height="11" fill="#e9eee2" opacity="0.3"/><rect x="778" y="491" width="7" height="11" fill="#e9eee2" opacity="0.3"/><rect x="800" y="491" width="7" height="11" fill="#e9eee2" opacity="0.65"/><rect x="822" y="491" width="7" height="11" fill="#e9eee2" opacity="0.3"/><rect x="756" y="519" width="7" height="11" fill="#e9eee2" opacity="0.3"/><rect x="778" y="519" width="7" height="11" fill="#e9eee2" opacity="0.65"/><rect x="800" y="519" width="7" height="11" fill="#e9eee2" opacity="0.3"/><rect x="822" y="519" width="7" height="11" fill="#e9eee2" opacity="0.3"/><rect x="756" y="547" width="7" height="11" fill="#e9eee2" opacity="0.65"/><rect x="778" y="547" width="7" height="11" fill="#e9eee2" opacity="0.3"/><rect x="800" y="547" width="7" height="11" fill="#e9eee2" opacity="0.3"/><rect x="822" y="547" width="7" height="11" fill="#e9eee2" opacity="0.65"/></g><g><rect x="872" y="285" width="70" height="295" fill="#597c71"/><path d="M880 285v-12h54v12" fill="#a7b9ae"/><rect x="884" y="299" width="7" height="11" fill="#e9eee2" opacity="0.65"/><rect x="906" y="299" width="7" height="11" fill="#e9eee2" opacity="0.3"/><rect x="884" y="327" width="7" height="11" fill="#e9eee2" opacity="0.3"/><rect x="906" y="327" width="7" height="11" fill="#e9eee2" opacity="0.3"/><rect x="884" y="355" width="7" height="11" fill="#e9eee2" opacity="0.3"/><rect x="906" y="355" width="7" height="11" fill="#e9eee2" opacity="0.65"/><rect x="884" y="383" width="7" height="11" fill="#e9eee2" opacity="0.65"/><rect x="906" y="383" width="7" height="11" fill="#e9eee2" opacity="0.3"/><rect x="884" y="411" width="7" height="11" fill="#e9eee2" opacity="0.3"/><rect x="906" y="411" width="7" height="11" fill="#e9eee2" opacity="0.3"/><rect x="884" y="439" width="7" height="11" fill="#e9eee2" opacity="0.3"/><rect x="906" y="439" width="7" height="11" fill="#e9eee2" opacity="0.65"/><rect x="884" y="467" width="7" height="11" fill="#e9eee2" opacity="0.65"/><rect x="906" y="467" width="7" height="11" fill="#e9eee2" opacity="0.3"/><rect x="884" y="495" width="7" height="11" fill="#e9eee2" opacity="0.3"/><rect x="906" y="495" width="7" height="11" fill="#e9eee2" opacity="0.3"/><rect x="884" y="523" width="7" height="11" fill="#e9eee2" opacity="0.3"/><rect x="906" y="523" width="7" height="11" fill="#e9eee2" opacity="0.65"/><rect x="884" y="551" width="7" height="11" fill="#e9eee2" opacity="0.65"/><rect x="906" y="551" width="7" height="11" fill="#e9eee2" opacity="0.3"/></g><g><rect x="966" y="185" width="84" height="395" fill="#829b90"/><path d="M974 185v-12h68v12" fill="#a7b9ae"/><rect x="978" y="199" width="7" height="11" fill="#e9eee2" opacity="0.65"/><rect x="1000" y="199" width="7" height="11" fill="#e9eee2" opacity="0.3"/><rect x="978" y="227" width="7" height="11" fill="#e9eee2" opacity="0.3"/><rect x="1000" y="227" width="7" height="11" fill="#e9eee2" opacity="0.3"/><rect x="978" y="255" width="7" height="11" fill="#e9eee2" opacity="0.3"/><rect x="1000" y="255" width="7" height="11" fill="#e9eee2" opacity="0.65"/><rect x="978" y="283" width="7" height="11" fill="#e9eee2" opacity="0.65"/><rect x="1000" y="283" width="7" height="11" fill="#e9eee2" opacity="0.3"/><rect x="978" y="311" width="7" height="11" fill="#e9eee2" opacity="0.3"/><rect x="1000" y="311" width="7" height="11" fill="#e9eee2" opacity="0.3"/><rect x="978" y="339" width="7" height="11" fill="#e9eee2" opacity="0.3"/><rect x="1000" y="339" width="7" height="11" fill="#e9eee2" opacity="0.65"/><rect x="978" y="367" width="7" height="11" fill="#e9eee2" opacity="0.65"/><rect x="1000" y="367" width="7" height="11" fill="#e9eee2" opacity="0.3"/><rect x="978" y="395" width="7" height="11" fill="#e9eee2" opacity="0.3"/><rect x="1000" y="395" width="7" height="11" fill="#e9eee2" opacity="0.3"/><rect x="978" y="423" width="7" height="11" fill="#e9eee2" opacity="0.3"/><rect x="1000" y="423" width="7" height="11" fill="#e9eee2" opacity="0.65"/><rect x="978" y="451" width="7" height="11" fill="#e9eee2" opacity="0.65"/><rect x="1000" y="451" width="7" height="11" fill="#e9eee2" opacity="0.3"/><rect x="978" y="479" width="7" height="11" fill="#e9eee2" opacity="0.3"/><rect x="1000" y="479" width="7" height="11" fill="#e9eee2" opacity="0.3"/><rect x="978" y="507" width="7" height="11" fill="#e9eee2" opacity="0.3"/><rect x="1000" y="507" width="7" height="11" fill="#e9eee2" opacity="0.65"/><rect x="978" y="535" width="7" height="11" fill="#e9eee2" opacity="0.65"/><rect x="1000" y="535" width="7" height="11" fill="#e9eee2" opacity="0.3"/><rect x="978" y="563" width="7" height="11" fill="#e9eee2" opacity="0.3"/><rect x="1000" y="563" width="7" height="11" fill="#e9eee2" opacity="0.3"/></g><g><rect x="1072" y="340" width="116" height="240" fill="#69857a"/><path d="M1080 340v-12h100v12" fill="#a7b9ae"/><rect x="1084" y="354" width="7" height="11" fill="#e9eee2" opacity="0.65"/><rect x="1106" y="354" width="7" height="11" fill="#e9eee2" opacity="0.3"/><rect x="1128" y="354" width="7" height="11" fill="#e9eee2" opacity="0.3"/><rect x="1150" y="354" width="7" height="11" fill="#e9eee2" opacity="0.65"/><rect x="1084" y="382" width="7" height="11" fill="#e9eee2" opacity="0.3"/><rect x="1106" y="382" width="7" height="11" fill="#e9eee2" opacity="0.3"/><rect x="1128" y="382" width="7" height="11" fill="#e9eee2" opacity="0.65"/><rect x="1150" y="382" width="7" height="11" fill="#e9eee2" opacity="0.3"/><rect x="1084" y="410" width="7" height="11" fill="#e9eee2" opacity="0.3"/><rect x="1106" y="410" width="7" height="11" fill="#e9eee2" opacity="0.65"/><rect x="1128" y="410" width="7" height="11" fill="#e9eee2" opacity="0.3"/><rect x="1150" y="410" width="7" height="11" fill="#e9eee2" opacity="0.3"/><rect x="1084" y="438" width="7" height="11" fill="#e9eee2" opacity="0.65"/><rect x="1106" y="438" width="7" height="11" fill="#e9eee2" opacity="0.3"/><rect x="1128" y="438" width="7" height="11" fill="#e9eee2" opacity="0.3"/><rect x="1150" y="438" width="7" height="11" fill="#e9eee2" opacity="0.65"/><rect x="1084" y="466" width="7" height="11" fill="#e9eee2" opacity="0.3"/><rect x="1106" y="466" width="7" height="11" fill="#e9eee2" opacity="0.3"/><rect x="1128" y="466" width="7" height="11" fill="#e9eee2" opacity="0.65"/><rect x="1150" y="466" width="7" height="11" fill="#e9eee2" opacity="0.3"/><rect x="1084" y="494" width="7" height="11" fill="#e9eee2" opacity="0.3"/><rect x="1106" y="494" width="7" height="11" fill="#e9eee2" opacity="0.65"/><rect x="1128" y="494" width="7" height="11" fill="#e9eee2" opacity="0.3"/><rect x="1150" y="494" width="7" height="11" fill="#e9eee2" opacity="0.3"/><rect x="1084" y="522" width="7" height="11" fill="#e9eee2" opacity="0.65"/><rect x="1106" y="522" width="7" height="11" fill="#e9eee2" opacity="0.3"/><rect x="1128" y="522" width="7" height="11" fill="#e9eee2" opacity="0.3"/><rect x="1150" y="522" width="7" height="11" fill="#e9eee2" opacity="0.65"/><rect x="1084" y="550" width="7" height="11" fill="#e9eee2" opacity="0.3"/><rect x="1106" y="550" width="7" height="11" fill="#e9eee2" opacity="0.3"/><rect x="1128" y="550" width="7" height="11" fill="#e9eee2" opacity="0.65"/><rect x="1150" y="550" width="7" height="11" fill="#e9eee2" opacity="0.3"/></g><g><rect x="1210" y="300" width="88" height="280" fill="#597c71"/><path d="M1218 300v-12h72v12" fill="#a7b9ae"/><rect x="1222" y="314" width="7" height="11" fill="#e9eee2" opacity="0.65"/><rect x="1244" y="314" width="7" height="11" fill="#e9eee2" opacity="0.3"/><rect x="1266" y="314" width="7" height="11" fill="#e9eee2" opacity="0.3"/><rect x="1222" y="342" width="7" height="11" fill="#e9eee2" opacity="0.3"/><rect x="1244" y="342" width="7" height="11" fill="#e9eee2" opacity="0.3"/><rect x="1266" y="342" width="7" height="11" fill="#e9eee2" opacity="0.65"/><rect x="1222" y="370" width="7" height="11" fill="#e9eee2" opacity="0.3"/><rect x="1244" y="370" width="7" height="11" fill="#e9eee2" opacity="0.65"/><rect x="1266" y="370" width="7" height="11" fill="#e9eee2" opacity="0.3"/><rect x="1222" y="398" width="7" height="11" fill="#e9eee2" opacity="0.65"/><rect x="1244" y="398" width="7" height="11" fill="#e9eee2" opacity="0.3"/><rect x="1266" y="398" width="7" height="11" fill="#e9eee2" opacity="0.3"/><rect x="1222" y="426" width="7" height="11" fill="#e9eee2" opacity="0.3"/><rect x="1244" y="426" width="7" height="11" fill="#e9eee2" opacity="0.3"/><rect x="1266" y="426" width="7" height="11" fill="#e9eee2" opacity="0.65"/><rect x="1222" y="454" width="7" height="11" fill="#e9eee2" opacity="0.3"/><rect x="1244" y="454" width="7" height="11" fill="#e9eee2" opacity="0.65"/><rect x="1266" y="454" width="7" height="11" fill="#e9eee2" opacity="0.3"/><rect x="1222" y="482" width="7" height="11" fill="#e9eee2" opacity="0.65"/><rect x="1244" y="482" width="7" height="11" fill="#e9eee2" opacity="0.3"/><rect x="1266" y="482" width="7" height="11" fill="#e9eee2" opacity="0.3"/><rect x="1222" y="510" width="7" height="11" fill="#e9eee2" opacity="0.3"/><rect x="1244" y="510" width="7" height="11" fill="#e9eee2" opacity="0.3"/><rect x="1266" y="510" width="7" height="11" fill="#e9eee2" opacity="0.65"/><rect x="1222" y="538" width="7" height="11" fill="#e9eee2" opacity="0.3"/><rect x="1244" y="538" width="7" height="11" fill="#e9eee2" opacity="0.65"/><rect x="1266" y="538" width="7" height="11" fill="#e9eee2" opacity="0.3"/><rect x="1222" y="566" width="7" height="11" fill="#e9eee2" opacity="0.65"/><rect x="1244" y="566" width="7" height="11" fill="#e9eee2" opacity="0.3"/><rect x="1266" y="566" width="7" height="11" fill="#e9eee2" opacity="0.3"/></g><g><rect x="1320" y="360" width="110" height="220" fill="#829b90"/><path d="M1328 360v-12h94v12" fill="#a7b9ae"/><rect x="1332" y="374" width="7" height="11" fill="#e9eee2" opacity="0.65"/><rect x="1354" y="374" width="7" height="11" fill="#e9eee2" opacity="0.3"/><rect x="1376" y="374" width="7" height="11" fill="#e9eee2" opacity="0.3"/><rect x="1398" y="374" width="7" height="11" fill="#e9eee2" opacity="0.65"/><rect x="1332" y="402" width="7" height="11" fill="#e9eee2" opacity="0.3"/><rect x="1354" y="402" width="7" height="11" fill="#e9eee2" opacity="0.3"/><rect x="1376" y="402" width="7" height="11" fill="#e9eee2" opacity="0.65"/><rect x="1398" y="402" width="7" height="11" fill="#e9eee2" opacity="0.3"/><rect x="1332" y="430" width="7" height="11" fill="#e9eee2" opacity="0.3"/><rect x="1354" y="430" width="7" height="11" fill="#e9eee2" opacity="0.65"/><rect x="1376" y="430" width="7" height="11" fill="#e9eee2" opacity="0.3"/><rect x="1398" y="430" width="7" height="11" fill="#e9eee2" opacity="0.3"/><rect x="1332" y="458" width="7" height="11" fill="#e9eee2" opacity="0.65"/><rect x="1354" y="458" width="7" height="11" fill="#e9eee2" opacity="0.3"/><rect x="1376" y="458" width="7" height="11" fill="#e9eee2" opacity="0.3"/><rect x="1398" y="458" width="7" height="11" fill="#e9eee2" opacity="0.65"/><rect x="1332" y="486" width="7" height="11" fill="#e9eee2" opacity="0.3"/><rect x="1354" y="486" width="7" height="11" fill="#e9eee2" opacity="0.3"/><rect x="1376" y="486" width="7" height="11" fill="#e9eee2" opacity="0.65"/><rect x="1398" y="486" width="7" height="11" fill="#e9eee2" opacity="0.3"/><rect x="1332" y="514" width="7" height="11" fill="#e9eee2" opacity="0.3"/><rect x="1354" y="514" width="7" height="11" fill="#e9eee2" opacity="0.65"/><rect x="1376" y="514" width="7" height="11" fill="#e9eee2" opacity="0.3"/><rect x="1398" y="514" width="7" height="11" fill="#e9eee2" opacity="0.3"/><rect x="1332" y="542" width="7" height="11" fill="#e9eee2" opacity="0.65"/><rect x="1354" y="542" width="7" height="11" fill="#e9eee2" opacity="0.3"/><rect x="1376" y="542" width="7" height="11" fill="#e9eee2" opacity="0.3"/><rect x="1398" y="542" width="7" height="11" fill="#e9eee2" opacity="0.65"/></g><path fill="#476c67" d="M0 566h1440v100H0z"/><g fill="none" stroke="#edc43c"><path d="M0 594H1440" stroke-width="16"/><path d="M90 600V392h22v208M700 600V392h22v208M1310 600V392h22v208" stroke-width="13"/><path d="M101 400Q405 656 711 400Q1017 656 1321 400" stroke-width="9"/><path d="M120 415.45081429723194V584" stroke-width="3"/><path d="M150 437.82415479709755V584" stroke-width="3"/><path d="M180 457.72074173609246V584" stroke-width="3"/><path d="M210 475.14057511421663V584" stroke-width="3"/><path d="M240 490.08365493147005V584" stroke-width="3"/><path d="M270 502.5499811878527V584" stroke-width="3"/><path d="M300 512.5395538833646V584" stroke-width="3"/><path d="M330 520.0523730180059V584" stroke-width="3"/><path d="M360 525.0884385917764V584" stroke-width="3"/><path d="M390 527.6477506046762V584" stroke-width="3"/><path d="M420 527.7303090567052V584" stroke-width="3"/><path d="M450 525.3361139478635V584" stroke-width="3"/><path d="M480 520.4651652781511V584" stroke-width="3"/><path d="M510 513.1174630475679V584" stroke-width="3"/><path d="M540 503.2930072561139V584" stroke-width="3"/><path d="M570 490.9917979037893V584" stroke-width="3"/><path d="M600 476.2138349905939V584" stroke-width="3"/><path d="M630 458.95911851652784V584" stroke-width="3"/><path d="M660 439.22764848159096V584" stroke-width="3"/><path d="M690 417.0194248857834V584" stroke-width="3"/><path d="M720 407.44264445041654V584" stroke-width="3"/><path d="M750 430.64156947057245V584" stroke-width="3"/><path d="M780 451.36374092985756V584" stroke-width="3"/><path d="M810 469.609158828272V584" stroke-width="3"/><path d="M840 485.37782316581564V584" stroke-width="3"/><path d="M870 498.66973394248856V584" stroke-width="3"/><path d="M900 509.4848911582908V584" stroke-width="3"/><path d="M930 517.8232948132222V584" stroke-width="3"/><path d="M960 523.684944907283V584" stroke-width="3"/><path d="M990 527.0698414404729V584" stroke-width="3"/><path d="M1020 527.9779844127922V584" stroke-width="3"/><path d="M1050 526.4093738242408V584" stroke-width="3"/><path d="M1080 522.3640096748186V584" stroke-width="3"/><path d="M1110 515.8418919645256V584" stroke-width="3"/><path d="M1140 506.843020693362V584" stroke-width="3"/><path d="M1170 495.3673958613276V584" stroke-width="3"/><path d="M1200 481.41501746842243V584" stroke-width="3"/><path d="M1230 464.9858855146466V584" stroke-width="3"/><path d="M1260 446.08V584" stroke-width="3"/><path d="M1290 424.69736092448267V584" stroke-width="3"/><path d="M0 579H1440" stroke-width="4"/></g><path fill="#283c39" d="M0 610h1440v110H0z"/><path stroke="#a7b9ad" stroke-width="4" d="M0 612h1440"/><path d="M0 681h1440" stroke="#afba9c" stroke-width="6" stroke-dasharray="90 65"/></svg>
